<?xml version="1.0" encoding="UTF-8"?>
<!DOCTYPE svg PUBLIC "-//W3C//DTD SVG 1.1//EN" "http://www.w3.org/Graphics/SVG/1.1/DTD/svg11.dtd">
<!-- Creator: CorelDRAW 2018 (64 Bit) -->
<svg xmlns="http://www.w3.org/2000/svg" xml:space="preserve" width="124.074mm" height="72.0564mm" version="1.1" style="shape-rendering:geometricPrecision; text-rendering:geometricPrecision; image-rendering:optimizeQuality; fill-rule:evenodd; clip-rule:evenodd"
viewBox="0 0 12919.11 7502.84"
 xmlns:xlink="http://www.w3.org/1999/xlink">
 <defs>
  <style type="text/css">
   <![CDATA[
    .fil0 {fill:white}
   ]]>
  </style>
 </defs>
 <g id="Camada_x0020_1">
  <metadata id="CorelCorpID_0Corel-Layer"/>
  <g id="_3012758329488">
   <path class="fil0" d="M7.07 7494.84l932.24 4.06 2.6 -4772.76c126.5,87.08 1690.37,2219.8 1956.45,2571.35 91.97,121.51 174.97,279.55 305.65,367.09l1624.61 -2188.14c85.4,-113.79 174.61,-229.82 268.97,-355.34 89.37,-118.85 199,-309.52 315.6,-383.22l-0.08 4752.44 936.9 12.52 -0.27 -7501.41c-141.02,105.68 -642.35,823.41 -785.69,1014.68 -270.67,361.19 -527.27,690.55 -792.3,1044.34l-1175.41 1542.18c-121.17,159.73 -259.04,380.92 -401.55,524.63 -65.65,-38.08 -7.98,4.54 -63.31,-52.74l-144.94 -187.51c-419.3,-552.13 -2837.73,-3791.65 -2986.54,-3887.02l7.07 7494.84z"/>
   <path class="fil0" d="M7630.22 556.7c0.46,1401.55 -23.75,3196.87 6.61,4500.34l934.05 -882.79 2648.34 2904.75c161.01,160.88 259.71,255.38 379,418l1296.68 3.31c-63.01,-123.11 -1322.06,-1433.81 -1544.06,-1691.63l-1997.69 -2203.16 871.42 -904.49c658.07,-653.75 2159.28,-2101.62 2694.55,-2694.52l-1165.57 -3.69c-246.62,0.58 -326.91,183.62 -457.83,316.35 -136.49,138.37 -246.22,250.02 -383.94,387.52 -272.4,271.95 -514.72,520.65 -784.25,795.24 -225.32,229.54 -1398.7,1475.98 -1559.34,1546.01l1.1 -3047.62 -937.6 1.08 -1.48 555.29z"/>
   <path class="fil0" d="M7630.57 6029.89l2.23 1471.58 935.25 -1.65 0.14 -2796.01c-179.1,97.67 -425.15,374.56 -586.38,530.08 -433.85,418.52 -350.63,393.71 -351.23,795.99z"/>
  </g>
 </g>
</svg>
