<?xml version="1.0" encoding="UTF-8"?>
<!DOCTYPE svg PUBLIC "-//W3C//DTD SVG 1.1//EN" "http://www.w3.org/Graphics/SVG/1.1/DTD/svg11.dtd">
<!-- Creator: CorelDRAW 2018 (64 Bit) -->
<svg xmlns="http://www.w3.org/2000/svg" xml:space="preserve" width="26.6936mm" height="26.6936mm" version="1.1" style="shape-rendering:geometricPrecision; text-rendering:geometricPrecision; image-rendering:optimizeQuality; fill-rule:evenodd; clip-rule:evenodd"
viewBox="0 0 682.16 682.16"
 xmlns:xlink="http://www.w3.org/1999/xlink">
 <defs>
  <style type="text/css">
   <![CDATA[
    .str0 {stroke:white;stroke-width:5.11;stroke-miterlimit:22.9256}
    .fil0 {fill:white;fill-rule:nonzero}
   ]]>
  </style>
 </defs>
 <g id="Camada_x0020_1">
  <metadata id="CorelCorpID_0Corel-Layer"/>
  <g id="_2214943436704">
   <path class="fil0 str0" d="M94.54 19.86l251.97 0 0 26.09 -251.97 0c-13.35,0 -25.49,5.47 -34.31,14.28 -8.81,8.81 -14.28,20.96 -14.28,34.31l0 493.07c0,13.35 5.47,25.49 14.28,34.31 8.81,8.81 20.96,14.28 34.31,14.28l493.07 0c13.35,0 25.49,-5.47 34.31,-14.28 8.81,-8.81 14.28,-20.96 14.28,-34.31l0 -246.53 26.09 0 0 246.53c0,20.55 -8.4,39.22 -21.93,52.75 -13.53,13.53 -32.2,21.93 -52.75,21.93l-493.07 0c-20.55,0 -39.22,-8.4 -52.75,-21.93 -13.53,-13.53 -21.93,-32.2 -21.93,-52.75l0 -493.07c0,-20.55 8.4,-39.22 21.93,-52.75 13.53,-13.53 32.2,-21.93 52.75,-21.93z"/>
   <path class="fil0 str0" d="M94.54 2.56l269.28 0 0 60.71 -269.28 0c-4.25,0 -8.27,0.84 -11.89,2.34 -3.77,1.57 -7.23,3.93 -10.18,6.87 -2.94,2.94 -5.3,6.4 -6.87,10.18 -1.51,3.62 -2.34,7.64 -2.34,11.89l0 493.07c0,4.25 0.84,8.27 2.34,11.89 1.57,3.77 3.93,7.23 6.87,10.18 2.94,2.94 6.4,5.3 10.18,6.87 3.62,1.51 7.64,2.34 11.89,2.34l493.07 0c4.25,0 8.27,-0.84 11.89,-2.34 3.77,-1.57 7.23,-3.93 10.18,-6.87 2.94,-2.94 5.3,-6.4 6.87,-10.18 1.51,-3.62 2.34,-7.64 2.34,-11.89l0 -263.84 60.71 0 0 263.84c0,12.37 -2.5,24.24 -7.03,35.12 -4.69,11.29 -11.53,21.43 -19.97,29.87 -8.44,8.44 -18.58,15.28 -29.87,19.97 -10.88,4.52 -22.75,7.03 -35.12,7.03l-493.07 0c-12.37,0 -24.24,-2.5 -35.12,-7.03 -11.29,-4.69 -21.43,-11.53 -29.87,-19.97 -8.44,-8.44 -15.28,-18.58 -19.97,-29.87 -4.52,-10.88 -7.03,-22.75 -7.03,-35.12l0 -493.07c0,-12.37 2.5,-24.24 7.03,-35.12 4.69,-11.29 11.53,-21.43 19.97,-29.87 8.44,-8.44 18.58,-15.28 29.87,-19.97 10.88,-4.52 22.75,-7.03 35.12,-7.03z"/>
   <path class="fil0 str0" d="M463.4 203.08l-105.42 105.42 24.51 24.51 105.42 -105.42c18.69,22.09 33.14,48.45 43.4,79.14l98.03 -245.08 -245.07 98.03c30.68,10.26 57.04,24.71 79.13,43.4z"/>
  </g>
 </g>
</svg>
